<svg xmlns="http://www.w3.org/2000/svg" viewBox="0 0 1024 1024"><path d="M204.74,690.8q0-2.35,2.66-4.05a13.12,13.12,0,0,1,7.15-1.7q5.78,0,8.8,2.58a16.74,16.74,0,0,1,4.67,7l12.75-3.87q-5.31-18.32-26.33-18.32-11,0-17.3,5.64t-6.32,13.39a13.62,13.62,0,0,0,5.08,11.1q5.07,4.17,15.94,7.22,1.18,0.35,3.43.94a70.2,70.2,0,0,1,10.86,3.7,4.33,4.33,0,0,1,2.6,4q0,3.29-3.36,5.11a19,19,0,0,1-9,1.82q-12.4,0-14.05-13l-13.82,3.52a26.44,26.44,0,0,0,8.44,15.79q7,6.52,20,6.52,12.4,0,19-5.93t6.55-13.44a16.92,16.92,0,0,0-4-11.57q-4-4.52-14.94-7.46-12.52-3.53-15.65-5t-3.13-4" transform="translate(-188.44 -647)" style="fill:#45d4e1"/><rect x="64.62" y="27.34" width="15.46" height="62.67" style="fill:#45d4e1"/><path d="M270.58,656.85a9.79,9.79,0,1,0-9.79,9.61,9.75,9.75,0,0,0,9.79-9.61" transform="translate(-188.44 -647)" style="fill:#45d4e1"/><path d="M314.62,689.24l2.38-14.9a14.27,14.27,0,0,0-5.71-1.18,14.52,14.52,0,0,0-7.67,2.13,13.81,13.81,0,0,0-5.29,5.68h-0.24v-6.62H283.46V737h15.46V702.6q0-14.31,10.82-14.31a14.44,14.44,0,0,1,4.88.95" transform="translate(-188.44 -647)" style="fill:#45d4e1"/><path d="M440,705.36a17.18,17.18,0,1,1-17.17-17.64A17.43,17.43,0,0,1,440,705.36m16.27,0c0-18.13-15-32.88-33.44-32.88s-33.45,14.75-33.45,32.88,15,32.88,33.45,32.88,33.44-14.75,33.44-32.88" transform="translate(-188.44 -647)" style="fill:#45d4e1"/><path d="M528.91,705.29c0-18.92-13-32.8-30.52-32.82-6.62,0-14.71,1.79-20.32,8.36v-6.5H462.54v86h15.52V731c7.17,6.49,14.13,7.24,20.21,7.24,18.48,0,30.64-13.56,30.64-32.95m-15.63.06a17.21,17.21,0,1,1-17.2-17.64,17.45,17.45,0,0,1,17.2,17.64" transform="translate(-188.44 -647)" style="fill:#45d4e1"/><path d="M377.46,724.78A31.32,31.32,0,0,0,384,705.34c0-18.12-15-32.86-33.42-32.86s-33.43,14.74-33.43,32.86a32.62,32.62,0,0,0,6.46,19.36c5.9,8,27,27.47,27,27.47s20.86-19.41,26.86-27.4m-9.05-19.55a18.61,18.61,0,0,1-2.92,10.43c-2.78,4.54-14.89,16.34-14.89,16.34s-11.75-12.06-14.74-16.45a17.82,17.82,0,1,1,32.55-10.32" transform="translate(-188.44 -647)" style="fill:#45d4e1"/><path d="M360.38,705.74a9.79,9.79,0,1,0-9.79,9.62,9.76,9.76,0,0,0,9.79-9.62" transform="translate(-188.44 -647)" style="fill:#45d4e1"/></svg>
