<svg class="svg-icon" id="logo" xmlns="http://www.w3.org/2000/svg" viewBox="0 0 1000 390" width="250px" height="100px">
                            <circle class="siroop-logo-inner-dot" cx="398.285" cy="145.428" r="24" opacity="1">
                            </circle>
                            <g class="siroop-logo-color" fill="#4FCADC">
                                <g>
                                    <path d="M575.2,64.6c-45.3,0-82.1,36.2-82.1,80.7c0,44.5,36.8,80.7,82.1,80.7c45.3,0,82.1-36.2,82.1-80.7
                                        C657.4,100.8,620.5,64.6,575.2,64.6z M575.2,188.6c-23.2,0-42.2-19.4-42.2-43.3c0-23.9,18.9-43.3,42.2-43.3
                                        c23.2,0,42.1,19.4,42.1,43.3C617.4,169.2,598.5,188.6,575.2,188.6z M760.5,64.8c-16.2,0-36,4.4-49.8,20.5v-16h-38v210.9h38v-72
                                        c17.6,15.9,34.6,17.8,49.5,17.8c45.3,0,75.1-33.2,75.1-80.7C835.3,98.9,803.3,64.9,760.5,64.8z M754.8,188.6
                                        c-23.3,0-42.2-19.4-42.2-43.3c0-23.9,18.9-43.3,42.2-43.3c23.2,0,42.1,19.4,42.1,43.3C796.9,169.2,778,188.6,754.8,188.6z
                                         M283.2,71.7c-5.7,3.5-10,8.1-13,13.9h-0.6V69.4h-35.9V223h37.9v-84.3c0-23.4,8.8-35.1,26.5-35.1c3.7,0,7.7,0.8,12,2.3l5.8-36.5
                                        c-4.5-1.9-9.1-2.9-14-2.9C295.2,66.5,288.9,68.2,283.2,71.7z M86.5,132.6c-20.6-5.8-33.5-9.9-38.6-12.3c-5.1-2.4-7.7-5.7-7.7-10
                                        c0-3.9,2.2-7.2,6.6-10C51.1,97.5,57,96,64.4,96c9.5,0,16.7,2.1,21.7,6.4c5,4.3,8.8,10,11.5,17.4l31.5-9.6
                                        C120.4,80.1,98.7,65,64.1,65C46,65,31.8,69.7,21.4,78.9C11,88.2,5.8,99.2,5.8,112c0,11.4,4.2,20.5,12.5,27.4
                                        c8.3,6.9,21.5,12.8,39.3,17.8c1.9,0.6,4.8,1.3,8.5,2.3c13.6,3.9,22.5,6.9,26.8,9.1c4.3,2.2,6.4,5.5,6.4,10c0,5.4-2.8,9.6-8.3,12.6
                                        c-5.5,3-13,4.5-22.3,4.5c-20.4,0-32-10.7-34.7-32.2L0,172.3c2.3,15.3,9.3,28.2,20.8,39c11.6,10.7,28,16.1,49.4,16.1
                                        c20.4,0,36-4.9,46.8-14.6c10.8-9.7,16.2-20.8,16.2-33.2c0-11.6-3.3-21.1-9.8-28.6C116.9,143.5,104.6,137.4,86.5,132.6z M159.3,223
                                        h37.9V69.4h-37.9V223z M398.3,65c-45.2,0-81.9,36.1-81.9,80.5c0,17.7,6,34.1,15.8,47.4c14.4,19.7,66.1,67.3,66.1,67.3
                                        s51.1-47.5,65.8-67.1c10.5-14,16.1-29.5,16.1-47.6C480.2,101.2,443.5,65,398.3,65z M435.7,171.2c-7,11.4-37.4,41-37.4,41
                                        s-29.5-30.3-37-41.3c-5.3-7.7-7.7-16.2-7.7-25.9c0-24.3,20.1-44,44.8-44c24.7,0,44.8,19.7,44.8,44
                                        C443,154.9,440.9,162.7,435.7,171.2z M178.2,2c-13.4,0-24.4,10.9-24.4,24.5c0,13,11,23.9,24.4,23.9c13.7,0,24.4-10.9,24.4-23.9
                                        C202.6,12.9,191.9,2,178.2,2z"></path>
                                </g>
                            </g>
                        </svg>
