<svg xmlns="http://www.w3.org/2000/svg" viewBox="0 0 1024 1024"><path d="M377.46,724.78A31.32,31.32,0,0,0,384,705.34c0-18.12-15-32.86-33.42-32.86s-33.43,14.74-33.43,32.86a32.62,32.62,0,0,0,6.46,19.36c5.9,8,27,27.47,27,27.47s20.86-19.41,26.86-27.4m-9.05-19.55a18.61,18.61,0,0,1-2.92,10.43c-2.78,4.54-14.89,16.34-14.89,16.34s-11.75-12.06-14.74-16.45a17.82,17.82,0,1,1,32.55-10.32" transform="translate(-188.44 -647)" style="fill:#45d4e1"/><path d="M360.38,705.74a9.79,9.79,0,1,0-9.79,9.62,9.76,9.76,0,0,0,9.79-9.62" transform="translate(-188.44 -647)" style="fill:#45d4e1"/></svg>
