<svg class="svg-icon" id="logo" xmlns="http://www.w3.org/2000/svg" viewBox="0 0 1000 1000">
    <circle class="siroop-logo-inner-dot" cx="398.285" cy="145.428" r="24" opacity="1">
    </circle>
    <g class="siroop-logo-color" fill="#4FCADC">
        <g>
            <path d="M398.3,65c-45.2,0-81.9,36.1-81.9,80.5c0,17.7,6,34.1,15.8,47.4c14.4,19.7,66.1,67.3,66.1,67.3
                s51.1-47.5,65.8-67.1c10.5-14,16.1-29.5,16.1-47.6C480.2,101.2,443.5,65,398.3,65z M435.7,171.2c-7,11.4-37.4,41-37.4,41
                s-29.5-30.3-37-41.3c-5.3-7.7-7.7-16.2-7.7-25.9c0-24.3,20.1-44,44.8-44c24.7,0,44.8,19.7,44.8,44
                C443,154.9,440.9,162.7,435.7,171.2z"></path>
        </g>
    </g>
</svg>
